# Blender v2.77 (sub 0) OBJ File: ''
# www.blender.org
mtllib torch_wall.mtl
o Cube_Cube.001_Cube_Cube.001_Material.001
v 0.062469 -0.079678 0.061009
v 0.062469 -0.078669 -0.063987
v -0.062531 -0.078669 -0.063987
v -0.062531 -0.079678 0.061009
v -0.062531 -0.642160 0.056469
v 0.062469 -0.642160 0.056469
v 0.062469 -0.641151 -0.068527
v -0.062531 -0.641151 -0.068527
v 0.353553 -0.076321 -0.355031
v 0.353553 -0.638802 -0.359570
v -0.353553 -0.644509 0.347513
v -0.353553 -0.082027 0.352052
v -0.353553 -0.076321 -0.355031
v -0.353553 -0.638802 -0.359570
v 0.353553 -0.644509 0.347513
v 0.353553 -0.082027 0.352052
vt 0.5625 0.5000
vt 0.5625 0.6250
vt 0.4375 0.6250
vt 0.4375 0.5000
vt 0.4375 0.0000
vt 0.5625 0.0000
vt 0.5625 0.1250
vt 0.4375 0.1250
vt 0.5625 0.6250
vt 0.4375 0.6250
vt 0.4375 0.6250
vt 0.4375 0.0000
vt 0.5625 0.6250
vt 0.5625 0.0000
vt 0.0000 0.5625
vt 0.0000 -0.0000
vt 1.0000 0.0000
vt 1.0000 0.5625
vt 0.0000 0.5625
vt 0.0000 -0.0000
vt 1.0000 0.0000
vt 1.0000 0.5625
vn 0.0000 1.0000 0.0081
vn 0.0000 0.0081 -1.0000
vn 1.0000 0.0000 0.0000
vn -0.7071 0.0057 -0.7071
vn -0.7071 -0.0057 0.7071
usemtl Material.001
s 1
f 1/1/1 2/2/1 3/3/1 4/4/1
f 5/5/1 6/6/1 7/7/1 8/8/1
f 1/9/2 6/6/2 5/5/2 4/10/2
f 2/11/3 1/9/3 6/6/3 7/12/3
f 3/13/2 2/11/2 7/12/2 8/14/2
f 4/10/3 5/5/3 8/14/3 3/13/3
f 9/15/4 10/16/4 11/17/4 12/18/4
f 13/19/5 14/20/5 15/21/5 16/22/5
o Cube_Cube.001_Cube_Cube.001_Material.002
v -0.353584 -0.107383 0.352060
v -0.353584 0.329962 0.363680
v 0.353522 0.348743 -0.343176
v 0.353522 -0.088602 -0.354796
v -0.353584 -0.088602 -0.354796
v 0.353522 -0.107383 0.352060
v 0.353522 0.329962 0.363680
v -0.353584 0.348743 -0.343176
vt 1.0000 0.5625
vt 1.0000 1.0000
vt 0.0000 1.0000
vt 0.0000 0.5625
vt 0.0000 0.5625
vt 1.0000 0.5625
vt 1.0000 1.0000
vt 0.0000 1.0000
vn -0.7071 0.0188 -0.7069
vn -0.7071 -0.0188 0.7069
usemtl Material.002
s 1
f 17/23/6 18/24/6 19/25/6 20/26/6
f 21/27/7 22/28/7 23/29/7 24/30/7
